<svg width="1440" height="1315" viewBox="0 0 1440 1315" fill="none" xmlns="http://www.w3.org/2000/svg">
<path d="M-1674.19 970.582C-1375.33 1159 -1121.75 1239.29 -920.498 1209.19C-684.925 1173.98 -518.102 987.095 -424.658 653.726C-349.459 385.381 -290.352 255.081 -243.963 255.39C-191.613 255.726 -151.339 418.468 -104.725 606.902C-28.4128 915.424 66.5714 1299.39 278.255 1314.32C425.701 1324.72 604.261 1155.99 824.165 798.446C1095.1 357.945 1342.44 141.3 1559.36 154.516C1688.37 162.375 1793.58 250.973 1877.72 368.868L1877.72 360.762C1793.49 245.136 1688.49 158.753 1559.89 150.912C1340.19 137.526 1090.88 354.935 818.919 797.098C603.12 1147.97 421.436 1320.77 278.874 1310.73C71.4554 1296.11 -23.1549 913.648 -99.1735 606.332C-148.127 408.446 -186.789 252.158 -243.915 251.768C-294.866 251.435 -352.337 375.204 -430.213 653.081C-523.212 984.897 -688.607 1170.82 -921.788 1205.68C-1121 1235.47 -1372.83 1155.49 -1670.24 967.995C-1742.23 922.614 -1812.41 873.73 -1879.11 824.327L-1879.11 829.862C-1813.6 878.246 -1744.75 926.084 -1674.19 970.582Z" fill="#5473B8"/>
<path d="M-1690.2 940.583C-1381.2 1127.52 -1120.53 1206.07 -915.441 1174C-680.475 1137.31 -515.478 955.009 -425.032 632.224C-351.393 369.537 -292.659 241.927 -245.378 242.048C-191.822 242.182 -148.983 402.322 -99.3344 587.757C-18.0979 891.278 82.9843 1269.03 299.23 1283.95C449.454 1294.31 629.389 1129.43 849.329 779.901C1120.14 349.56 1369.46 137.988 1590.39 151.046C1702.71 157.671 1798.03 222.009 1877.72 312.667L1877.72 305.715C1798.03 216.833 1702.9 154.046 1590.9 147.424C1367.2 134.206 1115.95 346.552 844.112 778.541C628.288 1121.52 445.161 1290.36 299.825 1280.31C87.796 1265.73 -12.8923 889.445 -93.791 587.127C-145.92 392.387 -187.063 238.568 -245.354 238.408C-297.194 238.289 -354.319 359.546 -430.559 631.578C-520.583 952.828 -684.169 1134.15 -916.755 1170.5C-1119.87 1202.24 -1378.8 1124 -1686.31 937.955C-1752.41 897.972 -1817.1 855.196 -1879.11 811.757L-1879.11 817.114C-1818.29 859.613 -1754.91 901.421 -1690.2 940.583Z" fill="#9FA8D5"/>
<path d="M-1706.4 911.206C-1387.03 1096.69 -1119.16 1173.48 -910.183 1139.4C-676.161 1101.26 -513.094 923.523 -425.562 611.149C-353.527 354.068 -295.087 229.055 -246.926 228.974C-192.16 228.887 -146.676 386.501 -94.0161 568.99C-7.8595 867.671 99.3972 1239.34 320.33 1254.24C473.38 1264.54 654.73 1103.49 874.783 761.845C1145.5 341.495 1396.85 134.893 1621.82 147.757C1718.89 153.316 1803.95 199.445 1877.72 267.486L1877.72 261.473C1804.02 194.772 1719.11 149.701 1622.32 144.166C1394.62 131.134 1141.36 338.479 869.577 760.453C653.649 1095.69 469.051 1260.59 320.913 1250.63C104.169 1236.04 -2.64978 865.809 -88.4849 568.322C-143.773 376.647 -187.485 225.241 -246.938 225.345C-299.698 225.44 -356.502 344.218 -431.118 610.496C-518.227 921.331 -679.88 1098.1 -911.574 1135.88C-1206.6 1183.97 -1573.14 1000.54 -1879.11 798.087L-1879.11 803.684C-1823.15 840.705 -1765.31 876.986 -1706.4 911.206Z" fill="#7DD0DE"/>
<path d="M-904.925 1105.31C-672.045 1065.76 -511.052 892.543 -426.39 590.439C-355.879 338.861 -297.764 216.42 -248.723 216.125C-192.707 215.798 -144.569 370.947 -88.8586 550.598C2.30664 844.518 115.786 1210.33 341.514 1225.14C497.403 1235.42 680.232 1078.09 900.441 744.225C1171.21 333.742 1424.62 132.035 1653.69 144.7C1736.49 149.278 1811.07 181.706 1877.72 231.252L1877.72 225.956C1811.17 177.4 1736.77 145.656 1654.18 141.086C1422.41 128.268 1167.07 330.716 895.288 742.81C679.215 1070.41 493.102 1231.47 342.125 1221.56C120.521 1206.97 7.51233 842.631 -83.3033 549.883C-141.84 361.185 -188.08 212.144 -248.763 212.496C-302.403 212.813 -358.858 329.188 -431.922 589.796C-516.157 890.395 -675.788 1062.66 -906.34 1101.81C-1199.87 1151.65 -1567.28 979.732 -1879.11 784.264L-1879.11 789.719C-1828.3 821.541 -1776.14 852.679 -1723.14 882.239C-1393.05 1066.4 -1117.75 1141.45 -904.925 1105.31Z" fill="#9AB2DC"/>
<path d="M-899.522 1071.74C-668.102 1030.89 -509.267 862.108 -427.436 570.106C-358.448 323.939 -300.643 204.015 -250.708 203.499C-193.41 202.907 -142.559 355.661 -83.7255 532.55C12.5089 821.859 132.299 1181.93 362.948 1196.72C521.727 1206.89 706.063 1053.26 926.502 727.021C1197.32 326.258 1452.86 129.358 1686.03 141.812C1755.34 145.503 1819.18 167.582 1877.72 202.208L1877.72 197.519C1819.3 163.552 1755.61 141.897 1686.5 138.213C1450.65 125.609 1193.21 323.24 921.32 725.606C705.034 1045.69 517.349 1202.99 363.483 1193.13C136.934 1178.6 17.618 819.99 -78.2463 531.819C-140.043 346.002 -188.876 199.239 -250.781 199.9C-305.326 200.449 -361.511 314.434 -432.987 569.476C-514.396 859.988 -671.872 1027.8 -901.022 1068.27C-1193.15 1119.84 -1561.53 958.601 -1879.11 769.926L-1879.11 775.198C-1833.63 802.194 -1787.19 828.587 -1740.16 853.818C-1399.03 1036.67 -1116.19 1110 -899.522 1071.74Z" fill="#A4BAE0"/>
<path d="M947.674 708.835C731.107 1021.51 541.806 1175.09 385.017 1165.3C153.347 1150.84 27.6957 797.777 -73.2618 514.081C-138.395 331.091 -189.841 186.547 -253.028 187.494C-308.453 188.323 -364.349 299.976 -434.277 549.532C-512.909 830.115 -668.126 993.528 -895.607 1035.21C-1186.38 1088.51 -1555.87 937.193 -1879.11 755.063L-1879.11 759.816C-1555.58 941.626 -1185.96 1092.19 -894.043 1038.68C-664.319 996.569 -507.763 832.209 -428.698 550.162C-361.237 309.309 -303.694 191.857 -252.891 191.093C-194.291 190.226 -140.75 340.666 -78.7568 514.876C22.6389 799.703 148.785 1154.18 384.494 1168.89C546.211 1178.98 732.12 1028.98 952.855 710.286C1223.79 319.093 1481.5 126.931 1718.8 139.129C1775.17 142.034 1828.11 156.419 1877.72 179.318L1877.72 174.986C1828.23 152.526 1775.45 138.427 1719.25 135.536C1479.31 123.187 1219.72 316.075 947.674 708.835Z" fill="#4B66B0"/>
<path d="M-888.492 1006.15C-660.75 962.853 -506.602 802.84 -430.286 530.536C-364.26 294.944 -307.026 179.93 -255.295 178.913C-195.368 177.725 -139.062 325.948 -73.8567 497.534C32.6804 777.991 165.286 1127.03 406.213 1141.66C570.877 1151.65 758.389 1005.22 979.471 693.949C1250.62 312.205 1510.53 124.692 1751.99 136.628C1795.83 138.801 1837.75 147.52 1877.72 161.484L1877.72 157.4C1837.87 143.707 1796.12 135.187 1752.44 133.013C1508.37 120.944 1246.58 309.172 974.325 692.46C757.412 997.845 566.451 1147.78 406.732 1138.08C169.836 1123.68 37.7372 776.042 -68.3899 496.698C-136.883 316.424 -190.982 174.039 -255.468 175.296C-311.798 176.411 -367.412 285.779 -435.841 529.898C-511.743 800.746 -664.568 959.804 -890.1 1002.66C-1179.62 1057.68 -1550.32 915.615 -1879.11 739.831L-1879.11 744.473C-1550 919.971 -1179.14 1061.37 -888.492 1006.15Z" fill="#B7E1DD"/>
<path d="M-882.86 974.078C-657.345 929.724 -505.657 774.025 -432.034 511.3C-367.46 280.885 -310.483 168.251 -257.876 166.97C-196.586 165.457 -137.466 311.488 -68.9968 480.568C42.8062 756.767 181.96 1100.53 428.194 1115.06C595.844 1124.96 785.016 982.024 1006.51 678.049C1277.89 305.596 1540.06 122.671 1785.68 134.327C1817.31 135.822 1847.99 140.528 1877.72 147.997L1877.72 144.143C1848.11 136.826 1817.57 132.208 1786.08 130.713C1537.87 118.938 1273.88 302.563 1001.39 676.505C784.076 974.723 591.394 1121.06 428.688 1111.45C186.398 1097.14 47.8029 754.753 -63.582 479.638C-135.493 302.023 -192.269 161.724 -258.097 163.333C-315.319 164.732 -370.672 271.856 -437.59 510.649C-510.814 771.939 -661.159 926.675 -884.508 970.616C-1172.82 1027.33 -1544.84 893.911 -1879.11 724.227L-1879.11 728.766C-1544.51 898.181 -1172.27 1031 -882.86 974.078Z" fill="#7CBFDF"/>
<path d="M-877.16 942.504C-654.121 897.161 -505.038 745.715 -434.028 492.384C-370.905 267.08 -314.201 156.778 -260.714 155.195C-198.021 153.347 -136.075 297.263 -64.3137 463.898C52.8357 735.995 198.618 1074.62 450.323 1089.05C621 1098.82 811.857 959.334 1033.82 662.579C1305.53 299.284 1569.98 120.841 1819.78 132.2C1839.45 133.093 1858.75 135.171 1877.72 138.29L1877.72 134.557C1858.88 131.508 1839.71 129.479 1820.18 128.593C1567.83 117.123 1301.55 296.251 1028.72 661.004C810.964 952.136 616.522 1094.94 450.805 1085.44C202.996 1071.23 57.7961 733.947 -58.9071 462.935C-134.266 287.873 -193.808 149.613 -260.971 151.578C-319.062 153.29 -374.153 258.217 -439.607 491.749C-510.195 743.652 -657.988 894.151 -878.868 939.055C-1166.01 997.429 -1539.4 872.057 -1879.11 708.247L-1879.11 712.713C-1539.06 876.278 -1165.4 1001.1 -877.16 942.504Z" fill="#81B2CB"/>
<path d="M-871.444 911.397C-651.118 865.164 -504.729 717.936 -436.311 473.819C-373.719 250.47 -318.888 145.552 -263.761 143.65C-199.661 141.437 -134.797 283.288 -59.699 447.561C62.853 715.658 215.357 1049.3 472.673 1063.6C646.385 1073.26 838.982 937.136 1061.45 647.484C1333.56 293.248 1600.32 119.24 1854.31 130.274C1862.18 130.617 1869.98 131.19 1877.72 131.875L1877.72 128.219C1870.09 127.55 1862.42 127.003 1854.71 126.66C1598.2 115.522 1329.61 290.215 1056.42 645.886C838.162 930.05 641.923 1069.38 473.179 1059.99C219.718 1045.91 67.7854 713.565 -54.2963 446.541C-133.189 273.973 -195.492 137.67 -264.074 140.035C-323.029 142.083 -377.871 244.818 -441.863 473.181C-509.874 715.891 -655.001 862.169 -873.192 907.955C-1159.16 967.98 -1534.01 850.164 -1879.11 692.005L-1879.11 696.394C-1533.66 854.318 -1158.49 971.64 -871.444 911.397Z" fill="#89CEED"/>
<path d="M-865.656 880.768C-648.316 833.74 -504.717 690.701 -438.84 455.603C-377.626 237.28 -323.053 134.549 -267.033 132.321C-201.446 129.716 -133.66 269.595 -55.1648 431.572C72.8943 695.772 232.264 1024.58 495.344 1038.75C672.12 1048.27 866.486 915.489 1089.55 632.82C1357.96 292.675 1623.06 123.102 1877.72 128.317L1877.72 124.7C1620.74 119.519 1353.96 289.76 1084.53 631.178C865.706 908.482 667.621 1044.39 495.819 1035.14C236.517 1021.17 77.7783 693.647 -49.7823 430.498C-132.245 260.319 -197.402 125.919 -267.383 128.704C-327.222 131.069 -381.815 231.714 -444.383 454.957C-509.874 688.662 -652.224 830.76 -867.465 877.337C-1152.26 938.959 -1528.68 828.277 -1879.13 675.565L-1879.13 679.863C-1528.32 832.369 -1151.54 942.63 -865.656 880.768Z" fill="#BCD0EC"/>
<path d="M1112.97 616.842C893.535 887.384 693.594 1019.92 518.7 1010.82C253.412 996.993 87.7437 674.132 -45.3442 414.735C-131.477 246.904 -199.496 114.342 -270.916 117.559C-330.791 120.275 -386.775 221.802 -447.109 437.066C-510.119 661.959 -649.631 799.948 -861.736 847.211C-1145.37 910.4 -1523.37 806.358 -1879.11 658.869L-1879.11 663.106C-1522.99 810.412 -1144.6 914.064 -859.879 850.616C-645.727 802.912 -504.986 663.981 -441.565 437.704C-381.766 224.317 -327.407 123.737 -270.518 121.166C-203.464 118.14 -132.667 256.108 -50.7026 415.865C82.9359 676.29 249.248 1000.4 518.254 1014.41C698.104 1023.78 894.283 894.278 1117.97 618.512C1374.64 302.085 1629.98 137.01 1877.72 127.034L1877.72 123.42C1627.74 133.357 1370.72 299.077 1112.97 616.842Z" fill="#687EBE"/>
<path d="M-854.102 820.888C-643.335 772.585 -505.557 637.738 -444.556 420.084C-386.128 211.587 -332.017 113.108 -274.249 110.188C-205.683 106.708 -131.826 242.836 -46.313 400.453C92.9775 657.214 266.356 976.76 541.436 990.621C724.41 999.843 922.409 873.562 1146.79 604.571C1391.97 310.685 1637.45 150.84 1877.72 128.085L1877.72 124.439C1635.27 147.112 1388.15 307.61 1141.83 602.883C921.714 866.747 719.871 995.996 541.858 987.032C270.448 973.344 97.7611 655.033 -41.0068 399.257C-130.858 233.689 -201.803 102.892 -274.707 106.595C-335.414 109.662 -391.149 209.062 -450.107 419.449C-510.714 635.727 -647.275 769.647 -856.008 817.472C-1138.46 882.208 -1518.09 784.44 -1879.11 641.967L-1879.11 646.139C-1517.69 788.452 -1137.64 885.864 -854.102 820.888Z" fill="#95A0D0"/>
<path d="M-848.398 791.653C-641.213 742.88 -506.425 612.048 -447.792 402.815C-390.715 199.143 -336.829 102.735 -278.228 99.4539C-208.127 95.522 -131.179 229.85 -42.048 385.389C103.003 638.616 283.549 953.752 564.891 967.438C751.001 976.492 950.898 853.397 1176.01 591.1C1409.9 318.59 1645.38 164.399 1877.72 131.015L1877.72 127.313C1643.29 160.586 1406.14 315.43 1171.06 589.357C950.227 846.635 746.426 972.637 565.301 963.823C287.577 950.313 107.73 636.393 -36.766 384.129C-130.387 220.726 -204.32 91.6597 -278.727 95.8395C-340.25 99.2964 -395.747 196.634 -453.343 402.172C-511.606 610.05 -645.168 739.952 -850.332 788.245C-1131.57 854.455 -1512.86 762.609 -1879.11 624.969L-1879.11 629.095C-1512.44 766.582 -1130.69 858.108 -848.398 791.653Z" fill="#ABB4D5"/>
<path d="M-842.722 762.831C-639.344 713.694 -507.639 586.856 -451.309 385.835C-395.574 186.914 -341.898 92.5686 -282.481 88.8897C-210.78 84.4388 -130.633 217.065 -37.8594 370.619C113.085 620.4 300.943 931.26 588.705 944.755C777.966 953.641 979.78 833.675 1205.66 577.972C1428.39 325.834 1653.81 177.607 1877.72 135.53L1877.72 131.748C1651.79 173.737 1424.72 322.643 1200.74 576.18C979.161 827.012 773.375 949.794 589.115 941.141C304.882 927.806 117.744 618.13 -32.6135 369.297C-130.102 207.988 -207.086 80.5688 -283.04 85.283C-345.367 89.1374 -400.607 184.438 -456.865 385.182C-512.821 584.865 -643.308 710.795 -844.704 759.457C-1124.67 827.1 -1507.63 740.828 -1879.11 607.804L-1879.11 611.888C-1507.21 744.752 -1123.74 830.73 -842.722 762.831Z" fill="#577DBF"/>
<path d="M-837.155 734.489C-637.704 685.104 -509.154 562.167 -455.052 369.147C-400.619 174.932 -347.228 82.5592 -286.979 78.5008C-213.654 73.531 -130.287 204.477 -33.743 356.12C123.15 602.565 318.445 909.285 612.816 922.607C805.236 931.31 1008.99 814.408 1235.7 565.211C1447.46 332.474 1662.63 190.758 1877.72 141.721L1877.72 137.895C1660.69 186.857 1443.86 329.252 1230.86 563.37C1008.47 807.814 800.649 927.463 613.238 918.984C322.352 905.831 127.797 600.265 -28.5092 354.744C-129.941 195.446 -210.036 69.6301 -287.562 74.8838C-350.677 79.1539 -405.64 172.454 -460.583 368.502C-514.324 560.21 -641.7 682.197 -839.165 731.12C-1117.8 800.134 -1502.47 719.146 -1879.11 590.591L-1879.11 594.637C-1502.04 723.055 -1116.85 803.764 -837.155 734.489Z" fill="#769BD1"/>
<path d="M-831.676 706.592C-636.341 657.031 -510.963 537.989 -459.047 352.753C-405.913 163.165 -352.731 72.767 -291.719 68.2697C-216.741 62.7527 -130.054 192.118 -29.6991 341.91C133.3 585.144 336.148 887.854 637.312 900.975C832.892 909.502 1038.6 795.626 1266.17 552.837C1467.02 338.583 1671.88 203.56 1877.72 149.151L1877.72 145.266C1669.97 199.628 1463.5 335.327 1261.35 550.973C1038.11 789.123 828.282 905.673 637.686 897.36C339.955 884.39 137.879 582.797 -24.5176 340.485C-129.953 183.131 -213.232 58.8492 -292.35 64.6786C-356.229 69.3928 -410.946 160.712 -464.599 352.108C-516.133 536.022 -640.333 654.165 -833.734 703.225C-1110.98 773.548 -1497.34 697.533 -1879.11 573.258L-1879.11 577.231C-1496.88 701.408 -1109.97 777.18 -831.676 706.592Z" fill="#80A1D3"/>
<path d="M1292.34 538.903C1068.22 770.858 856.312 884.359 662.525 876.221C357.766 863.452 147.981 565.712 -20.6023 326.48C-130.138 171.005 -216.689 48.2151 -297.443 54.6383C-362.041 59.7914 -416.514 149.193 -468.864 336.001C-518.275 512.358 -639.268 626.657 -828.416 675.756C-1104.22 747.331 -1492.23 676.05 -1879.11 555.878L-1879.11 559.828C-1491.76 679.897 -1103.15 750.953 -826.31 679.107C-635.228 629.515 -513.094 514.287 -463.296 336.631C-411.469 151.619 -358.536 63.1501 -296.723 58.2217C-220.09 52.1134 -130.014 179.956 -25.7114 327.969C143.478 568.074 354.024 866.907 662.167 879.82C755.909 883.752 854.069 859.98 953.945 809.136C1063.53 753.343 1178.99 663.057 1297.13 540.798C1487.12 344.18 1681.5 216.053 1877.72 157.694L1877.72 153.729C1679.67 212.088 1483.65 340.898 1292.34 538.903Z" fill="#7295CD"/>
<path d="M-821.176 652.118C-634.46 602.573 -515.586 491.119 -467.847 320.821C-417.27 140.314 -364.594 53.7477 -302.053 48.3803C-223.695 41.6628 -134.652 161.985 -21.8525 314.338C153.645 551.427 372.073 846.486 687.367 859.216C782.625 863.063 882.071 839.908 982.968 790.396C1093.66 736.064 1209.91 648.176 1328.52 529.142C1507.7 349.338 1691.49 228.497 1877.72 167.471L1877.72 163.402C1689.68 224.467 1504.31 346.026 1323.78 527.216C1098.7 753.072 884.7 863.548 687.729 855.609C375.743 843.013 158.106 549.016 -16.7594 312.794C-130.512 159.111 -220.363 37.7283 -302.797 44.8047C-368.103 50.4018 -422.314 137.9 -473.402 320.191C-520.755 489.183 -638.476 599.749 -823.307 648.783C-1097.55 721.535 -1487.2 654.715 -1879.11 538.498L-1879.11 542.415C-1486.71 658.521 -1096.44 725.151 -821.176 652.118Z" fill="#A9DEE8"/>
<path d="M-816.179 625.519C-633.925 576.149 -518.328 468.379 -472.61 305.207C-423.271 129.185 -370.845 44.4793 -307.633 38.6524C-227.526 31.2791 -135.046 150.274 -18.0255 300.924C163.935 535.106 390.371 826.542 713.005 839.081C809.774 842.814 910.511 820.284 1012.45 772.076C1124.23 719.219 1241.29 633.664 1360.4 517.829C1528.79 354.052 1701.83 240.597 1877.72 178.107L1877.72 173.985C1700.06 236.585 1525.44 350.74 1355.7 515.839C1129.64 735.692 913.534 843.23 713.351 835.459C393.941 823.062 168.309 532.653 -12.9928 299.307C-131.055 147.352 -224.302 27.3293 -308.425 35.0769C-374.402 41.1516 -428.328 126.786 -478.149 304.577C-523.521 466.453 -637.977 573.315 -818.362 622.191C-1056.24 686.633 -1412.66 652.35 -1879.11 520.442L-1879.11 524.374C-1412.27 656.171 -1055.15 690.255 -816.179 625.519Z" fill="#5C81C1"/>
<path d="M-811.396 599.413C-633.717 550.273 -521.427 446.151 -477.643 289.928C-429.53 118.3 -377.353 35.4202 -313.462 29.1441C-231.583 21.0789 -135.654 138.801 -14.219 287.827C174.298 519.177 408.89 807.099 739.102 819.432C837.394 823.103 939.429 801.169 1042.41 754.25C1155.29 702.809 1273.18 619.586 1392.79 506.883C1550.35 358.423 1712.49 252.445 1877.72 189.539L1877.72 185.359C1710.76 248.417 1547.06 355.103 1388.11 504.835C1161.07 718.78 942.802 823.421 739.411 815.807C412.4 803.596 178.611 516.683 -9.24646 286.146C-131.714 135.832 -228.467 17.1084 -314.338 25.5634C-380.947 32.1157 -434.623 115.912 -483.207 289.293C-526.633 444.248 -637.805 547.464 -813.651 596.085C-1050.47 661.559 -1408.4 630.13 -1879.13 502.935L-1879.13 506.852C-1407.96 633.951 -1049.26 665.176 -811.396 599.413Z" fill="#8AC3DA"/>
<path d="M-806.821 573.704C-633.789 524.923 -524.823 424.377 -482.921 274.874C-436.05 107.583 -384.158 26.5262 -319.644 19.7596C-235.956 10.9767 -136.522 127.457 -10.585 274.928C85.3398 387.283 194.06 514.628 321.817 616.449C470.193 734.727 615.32 794.839 765.516 800.227C974.201 807.745 1196.3 705.453 1425.64 496.246C1572.36 362.411 1723.45 264.139 1877.72 201.81L1877.72 197.519C1721.77 260.048 1569.12 359.076 1421.03 494.168C1192.88 702.293 972.456 804.058 765.838 796.63C430.996 784.608 188.898 501.03 -5.65259 273.194C-132.643 124.486 -232.941 7.00363 -320.549 16.1919C-387.764 23.2295 -441.123 105.226 -488.476 274.237C-530.029 422.498 -637.905 522.122 -809.113 570.392C-1044.74 636.824 -1404.12 608.201 -1879.11 485.473L-1879.11 489.366C-1403.63 612.014 -1043.51 640.431 -806.821 573.704Z" fill="#B5C8E7"/>
<path d="M-802.581 548.474C-634.271 500.132 -528.59 403.104 -488.501 260.089C-442.832 97.0967 -391.238 17.8078 -326.116 10.5636C-240.607 1.05007 -137.527 116.356 -6.99133 262.343C92.2819 373.407 204.817 499.264 336.582 599.929C489.62 716.846 638.723 776.256 792.445 781.59C1004.29 788.922 1228.56 689.483 1458.99 486.038C1594.78 366.129 1734.68 275.654 1877.72 214.796L1877.72 210.464C1733.02 271.57 1591.6 362.786 1454.42 483.898C1225.19 686.289 1002.57 785.227 792.742 777.967C449.872 766.097 199.265 485.77 -2.1073 260.533C-133.72 113.317 -237.681 -2.95915 -327.069 6.98808C-394.855 14.5369 -447.889 94.7577 -494.064 259.443C-533.796 401.209 -638.375 497.338 -804.888 545.169C-1039.21 612.461 -1399.99 586.404 -1879.13 467.99L-1879.13 471.852C-1399.48 590.194 -1037.94 616.075 -802.581 548.474Z" fill="#B3CAE9"/>
<path d="M-798.589 523.674C-635.002 475.848 -532.634 382.275 -494.325 245.551C-449.822 86.7958 -398.525 9.25741 -332.874 1.51493C-245.499 -8.78341 -138.692 105.402 -3.44568 249.969C99.2484 359.752 215.654 484.184 351.52 583.734C509.306 699.34 662.5 758.088 819.84 763.335C1034.87 770.509 1261.33 673.853 1492.93 476.07C1617.71 369.503 1746.21 286.856 1877.72 228.298L1877.72 223.919C1744.6 282.787 1614.58 366.168 1488.41 473.904C1258.04 670.67 1033.19 766.83 820.137 759.728C469.015 748.007 209.729 470.832 1.39014 248.105C-134.974 102.353 -242.673 -12.78 -333.89 -2.03756C-402.171 6.0173 -454.907 84.4877 -499.869 244.929C-537.852 380.388 -639.119 473.078 -800.92 520.393C-1033.8 588.472 -1395.86 564.898 -1879.11 450.579L-1879.11 454.438C-1395.34 568.673 -1032.5 592.07 -798.589 523.674Z" fill="#6D90CA"/>
<path d="M-794.955 499.326C-636.156 452.092 -537.06 361.893 -500.452 231.236C-457.138 76.6678 -406.135 0.830802 -340.001 -7.39703C-250.709 -18.5086 -140.091 94.6132 -0.0130619 237.835C106.166 346.4 226.511 469.446 366.594 567.916C529.24 682.259 686.575 740.373 847.633 745.562C1065.84 752.577 1294.53 658.678 1527.29 466.477C1640.98 372.617 1757.97 297.875 1877.72 242.358L1877.72 237.868C1756.38 293.734 1637.92 369.258 1522.88 464.249C1291.3 655.485 1064.2 748.9 847.93 741.943C488.378 730.364 220.241 456.199 4.78662 235.924C-136.425 91.5255 -247.983 -22.5258 -341.042 -10.9443C-409.781 -2.39379 -462.195 74.3598 -505.979 230.591C-542.254 360.016 -640.273 449.327 -797.299 496.047C-1028.66 564.86 -1391.82 543.69 -1879.13 433.284L-1879.13 437.115C-1391.29 547.446 -1027.33 568.443 -794.955 499.326Z" fill="#5C81C1"/>
<path d="M-791.598 475.417C-637.583 428.851 -541.755 341.964 -506.774 217.176C-464.651 66.7154 -413.973 -7.40745 -347.365 -16.1439C-256.187 -28.0945 -141.619 84.0075 3.42419 225.949C113.169 333.337 237.558 455.06 381.918 552.47C549.544 665.605 711.156 723.104 876.021 728.231C1097.42 735.135 1328.33 643.942 1562.34 457.226C1664.74 375.516 1770.01 308.782 1877.72 257.006L1877.72 252.486C1768.45 304.664 1661.72 372.147 1557.96 454.949C1325.15 640.725 1095.81 731.456 876.294 724.625C508.063 713.159 230.901 441.914 8.15942 223.974C-138.073 80.9043 -253.558 -32.1194 -348.494 -19.6783C-417.643 -10.6062 -469.708 64.4461 -512.326 216.531C-546.965 340.103 -641.724 426.112 -793.99 472.154C-1023.66 541.596 -1387.95 522.574 -1879.11 415.953L-1879.11 419.766C-1387.38 526.325 -1022.28 545.177 -791.598 475.417Z" fill="#84B4CE"/>
<path d="M-788.595 451.939C-639.392 406.096 -546.816 322.46 -513.443 203.323C-472.421 56.972 -422.105 -15.4958 -355.099 -24.7305C-261.964 -37.5692 -143.367 73.5801 6.79272 214.31C120.159 320.557 248.653 440.983 397.386 537.39C570.097 649.356 736.087 706.256 904.855 711.352C1129.46 718.129 1362.63 629.619 1597.91 448.268C1688.89 378.152 1782.26 319.395 1877.72 271.998L1877.72 267.452C1780.72 315.311 1685.9 374.798 1593.56 445.968C1359.46 626.402 1127.85 714.473 905.104 707.738C527.998 696.376 241.562 427.96 11.4075 212.263C-139.93 70.4278 -259.484 -41.6096 -356.301 -28.2649C-425.823 -18.6791 -477.518 54.7028 -518.995 202.693C-552.022 320.611 -643.569 403.38 -791.052 448.684C-1018.93 518.681 -1384.15 501.755 -1879.11 398.749L-1879.11 402.528C-1383.56 505.514 -1017.51 522.249 -788.595 451.939Z" fill="#6A86C3"/>
<path d="M1629.78 437.33C1394.38 612.494 1160.43 697.953 934.445 691.321C548.229 679.992 252.371 414.291 14.6394 200.782C-141.989 60.1244 -265.682 -50.9811 -364.433 -36.7096C-434.265 -26.6126 -485.574 45.1248 -525.913 189.08C-557.44 301.561 -645.788 381.152 -788.523 425.673C-1014.49 496.143 -1380.46 481.262 -1879.11 381.694L-1879.11 385.476C-1379.84 485.013 -1013.03 499.711 -786.043 428.923C-641.599 383.876 -552.219 303.384 -520.357 189.707C-481.024 49.3277 -429.602 -23.5791 -363.171 -33.1856C-268.102 -46.9279 -145.349 63.3179 10.0688 202.884C127.142 308.033 259.832 427.204 413.059 522.677C590.972 633.52 761.428 689.873 934.199 694.943C1161.99 701.617 1397.45 615.742 1634.05 439.687C1713.42 380.62 1794.71 329.864 1877.72 287.419L1877.72 282.772C1793.22 325.715 1710.51 377.259 1629.78 437.33Z" fill="#A3ADD1"/>
<path d="M1666.6 428.978C1429.83 598.997 1193.53 681.872 964.308 675.317C568.758 664.004 263.281 400.92 17.8031 189.524C-144.219 49.9886 -272.215 -60.2366 -372.867 -45.0046C-442.956 -34.3991 -493.867 35.7221 -533.104 175.67C-563.153 282.929 -648.356 359.435 -786.328 403.086C-1010.26 473.953 -1376.99 460.88 -1879.11 364.632L-1879.11 368.406C-1376.36 464.605 -1008.78 477.503 -783.836 406.329C-644.176 362.148 -557.947 284.754 -527.549 176.308C-489.304 39.8477 -438.293 -31.394 -371.564 -41.4807C-274.51 -56.1679 -147.508 53.2131 13.2887 191.69C134.156 295.773 271.14 413.748 428.925 508.274C612.148 618.05 787.187 673.869 964.063 678.924C1195.06 685.533 1432.85 602.237 1670.82 431.384C1738.38 382.889 1807.39 340.222 1877.72 303.28L1877.72 298.589C1805.93 336.083 1735.5 379.505 1666.6 428.978Z" fill="#7496CD"/>
<path d="M-782.104 384.201C-647.15 340.898 -564.045 266.52 -535.074 163.139C-497.907 30.546 -447.306 -39.0562 -380.352 -49.6437C-281.279 -65.2965 -149.9 43.2687 16.4644 180.728C141.199 283.789 282.556 400.603 445.041 494.264C633.678 602.978 813.404 658.312 994.469 663.385C1228.68 669.922 1468.81 589.205 1708.18 423.43C1763.69 384.983 1820.23 350.324 1877.72 319.37L1877.72 314.681C1818.81 346.209 1760.89 381.606 1704.04 420.969C1465.84 585.926 1227.17 666.258 994.694 659.755C589.585 648.408 274.263 387.864 20.9023 178.497C-146.712 40.0132 -279.096 -69.378 -381.714 -53.1573C-452.005 -42.0431 -502.497 26.4773 -540.617 162.493C-569.262 264.69 -651.367 338.201 -784.62 380.953C-1006.39 452.115 -1373.7 440.794 -1879.11 347.737L-1879.11 351.504C-1373.01 444.535 -1004.87 455.68 -782.104 384.201Z" fill="#9FDCEE"/>
<path d="M-780.749 362.484C-650.499 320.134 -570.441 248.688 -542.821 150.156C-506.735 21.3759 -456.567 -46.6051 -389.477 -57.6728C-288.395 -74.3272 -152.5 33.4762 19.5394 169.962C148.214 272.024 294.048 387.722 461.305 480.506C655.498 588.258 840.011 643.113 1025.38 648.209C1262.82 654.746 1505.32 576.531 1746.16 415.747C1789.38 386.901 1833.26 360.276 1877.72 335.787L1877.72 330.985C1831.85 356.104 1786.62 383.509 1742.1 413.237C1502.42 573.219 1261.36 651.075 1025.61 644.58C610.745 633.187 285.37 375.062 23.9249 167.654C-149.389 30.1717 -286.284 -78.4321 -390.88 -61.1942C-461.303 -49.5818 -511.345 17.3691 -548.388 149.495C-575.675 246.847 -654.716 317.413 -783.33 359.234C-1002.86 430.609 -1370.47 421 -1879.13 330.995L-1879.13 334.728C-1369.75 424.749 -1001.28 434.193 -780.749 362.484Z" fill="#5D83C2"/>
</svg>
