<svg width="859" height="234" viewBox="0 0 859 234" fill="none" xmlns="http://www.w3.org/2000/svg">
<path d="M41.58 204L2.2 133.6H33.22L66.44 199.05L55.99 199.27L87.12 133.6H120.34L151.47 199.27L141.02 199.05L174.24 133.6H204.82L165.88 204H128.7L98.34 144.71H109.12L78.76 204H41.58ZM275.355 184.64H301.315C300.655 188.893 298.528 192.597 294.935 195.75C291.415 198.903 286.245 201.36 279.425 203.12C272.678 204.807 264.062 205.65 253.575 205.65C242.502 205.65 232.932 204.77 224.865 203.01C216.872 201.25 210.712 198.28 206.385 194.1C202.058 189.92 199.895 184.273 199.895 177.16C199.895 170.12 201.985 164.51 206.165 160.33C210.418 156.077 216.542 153.033 224.535 151.2C232.528 149.367 242.208 148.45 253.575 148.45C264.722 148.45 273.852 149.44 280.965 151.42C288.078 153.4 293.322 156.627 296.695 161.1C300.068 165.5 301.682 171.477 301.535 179.03H226.735C227.102 180.937 228.128 182.697 229.815 184.31C231.575 185.923 234.252 187.243 237.845 188.27C241.512 189.223 246.388 189.7 252.475 189.7C258.782 189.7 263.952 189.26 267.985 188.38C272.092 187.5 274.548 186.253 275.355 184.64ZM252.475 164.4C244.702 164.4 238.762 165.243 234.655 166.93C230.622 168.617 228.238 170.303 227.505 171.99H275.905C275.392 170.083 273.338 168.36 269.745 166.82C266.152 165.207 260.395 164.4 252.475 164.4ZM312 128.1H338.4V204H312V128.1ZM450.529 180.57C450.529 185.85 448.879 190.36 445.579 194.1C442.279 197.84 437.072 200.7 429.959 202.68C422.846 204.66 413.606 205.65 402.239 205.65C390.872 205.65 381.192 204.733 373.199 202.9C365.279 201.067 359.229 198.06 355.049 193.88C350.942 189.7 348.889 184.127 348.889 177.16C348.889 170.193 350.942 164.62 355.049 160.44C359.229 156.187 365.279 153.143 373.199 151.31C381.192 149.403 390.872 148.45 402.239 148.45C413.606 148.45 422.809 149.44 429.849 151.42C436.889 153.4 442.059 156.26 445.359 160C448.659 163.74 450.346 168.213 450.419 173.42H426.219C425.046 170.56 422.406 168.36 418.299 166.82C414.192 165.207 408.839 164.4 402.239 164.4C396.886 164.4 392.229 164.803 388.269 165.61C384.309 166.343 381.229 167.627 379.029 169.46C376.902 171.293 375.839 173.86 375.839 177.16C375.839 180.387 376.902 182.917 379.029 184.75C381.156 186.583 384.199 187.867 388.159 188.6C392.119 189.333 396.812 189.7 402.239 189.7C408.839 189.7 414.192 188.93 418.299 187.39C422.479 185.777 425.156 183.503 426.329 180.57H450.529ZM510.495 205.65C498.835 205.65 489.118 204.697 481.345 202.79C473.645 200.883 467.851 197.84 463.965 193.66C460.151 189.48 458.245 183.98 458.245 177.16C458.245 170.34 460.151 164.84 463.965 160.66C467.851 156.407 473.645 153.327 481.345 151.42C489.118 149.44 498.835 148.45 510.495 148.45C522.081 148.45 531.688 149.44 539.315 151.42C547.015 153.327 552.771 156.407 556.585 160.66C560.398 164.84 562.305 170.34 562.305 177.16C562.305 183.98 560.398 189.48 556.585 193.66C552.771 197.84 547.015 200.883 539.315 202.79C531.688 204.697 522.081 205.65 510.495 205.65ZM510.495 189.7C515.921 189.7 520.468 189.26 524.135 188.38C527.801 187.427 530.588 186.033 532.495 184.2C534.401 182.293 535.355 179.947 535.355 177.16C535.355 174.373 534.401 172.027 532.495 170.12C530.661 168.213 527.911 166.783 524.245 165.83C520.578 164.877 515.995 164.4 510.495 164.4C505.068 164.4 500.448 164.877 496.635 165.83C492.895 166.783 490.035 168.213 488.055 170.12C486.148 171.953 485.195 174.3 485.195 177.16C485.195 179.947 486.148 182.293 488.055 184.2C489.961 186.033 492.785 187.427 496.525 188.38C500.338 189.26 504.995 189.7 510.495 189.7ZM571.063 150.1H597.463V204H571.063V150.1ZM637.063 148.45C641.39 148.45 645.57 148.927 649.603 149.88C653.637 150.76 657.23 152.3 660.383 154.5C663.61 156.7 666.177 159.707 668.083 163.52C669.99 167.333 670.943 172.137 670.943 177.93V204H644.543V181.23C644.543 175.73 643.113 171.843 640.253 169.57C637.393 167.223 632.223 166.05 624.743 166.05C620.783 166.05 616.933 166.49 613.193 167.37C609.527 168.25 606.227 169.313 603.293 170.56C600.36 171.733 598.05 172.907 596.363 174.08L596.143 169.9C596.437 168.58 597.427 166.747 599.113 164.4C600.873 161.98 603.403 159.56 606.703 157.14C610.003 154.72 614.147 152.667 619.133 150.98C624.193 149.293 630.17 148.45 637.063 148.45ZM709.223 148.45C713.55 148.45 717.73 148.927 721.763 149.88C725.797 150.76 729.39 152.3 732.543 154.5C735.77 156.7 738.337 159.707 740.243 163.52C742.15 167.333 743.103 172.137 743.103 177.93V204H716.703V181.23C716.703 175.73 715.273 171.843 712.413 169.57C709.553 167.223 704.383 166.05 696.903 166.05C692.943 166.05 689.093 166.49 685.353 167.37C681.687 168.25 678.387 169.313 675.453 170.56C672.52 171.733 670.21 172.907 668.523 174.08L668.303 168.8C668.597 167.7 669.697 166.05 671.603 163.85C673.51 161.65 676.187 159.377 679.633 157.03C683.153 154.683 687.37 152.667 692.283 150.98C697.27 149.293 702.917 148.45 709.223 148.45ZM827.396 184.64H853.356C852.696 188.893 850.569 192.597 846.976 195.75C843.456 198.903 838.286 201.36 831.466 203.12C824.719 204.807 816.103 205.65 805.616 205.65C794.543 205.65 784.973 204.77 776.906 203.01C768.913 201.25 762.753 198.28 758.426 194.1C754.099 189.92 751.936 184.273 751.936 177.16C751.936 170.12 754.026 164.51 758.206 160.33C762.459 156.077 768.583 153.033 776.576 151.2C784.569 149.367 794.249 148.45 805.616 148.45C816.763 148.45 825.893 149.44 833.006 151.42C840.119 153.4 845.363 156.627 848.736 161.1C852.109 165.5 853.723 171.477 853.576 179.03H778.776C779.143 180.937 780.169 182.697 781.856 184.31C783.616 185.923 786.293 187.243 789.886 188.27C793.553 189.223 798.429 189.7 804.516 189.7C810.823 189.7 815.993 189.26 820.026 188.38C824.133 187.5 826.589 186.253 827.396 184.64ZM804.516 164.4C796.743 164.4 790.803 165.243 786.696 166.93C782.663 168.617 780.279 170.303 779.546 171.99H827.946C827.433 170.083 825.379 168.36 821.786 166.82C818.193 165.207 812.436 164.4 804.516 164.4Z" fill="#090909"/>
<path d="M41.58 184L2.2 113.6H33.22L66.44 179.05L55.99 179.27L87.12 113.6H120.34L151.47 179.27L141.02 179.05L174.24 113.6H204.82L165.88 184H128.7L98.34 124.71H109.12L78.76 184H41.58ZM275.355 164.64H301.315C300.655 168.893 298.528 172.597 294.935 175.75C291.415 178.903 286.245 181.36 279.425 183.12C272.678 184.807 264.062 185.65 253.575 185.65C242.502 185.65 232.932 184.77 224.865 183.01C216.872 181.25 210.712 178.28 206.385 174.1C202.058 169.92 199.895 164.273 199.895 157.16C199.895 150.12 201.985 144.51 206.165 140.33C210.418 136.077 216.542 133.033 224.535 131.2C232.528 129.367 242.208 128.45 253.575 128.45C264.722 128.45 273.852 129.44 280.965 131.42C288.078 133.4 293.322 136.627 296.695 141.1C300.068 145.5 301.682 151.477 301.535 159.03H226.735C227.102 160.937 228.128 162.697 229.815 164.31C231.575 165.923 234.252 167.243 237.845 168.27C241.512 169.223 246.388 169.7 252.475 169.7C258.782 169.7 263.952 169.26 267.985 168.38C272.092 167.5 274.548 166.253 275.355 164.64ZM252.475 144.4C244.702 144.4 238.762 145.243 234.655 146.93C230.622 148.617 228.238 150.303 227.505 151.99H275.905C275.392 150.083 273.338 148.36 269.745 146.82C266.152 145.207 260.395 144.4 252.475 144.4ZM312 108.1H338.4V184H312V108.1ZM450.529 160.57C450.529 165.85 448.879 170.36 445.579 174.1C442.279 177.84 437.072 180.7 429.959 182.68C422.846 184.66 413.606 185.65 402.239 185.65C390.872 185.65 381.192 184.733 373.199 182.9C365.279 181.067 359.229 178.06 355.049 173.88C350.942 169.7 348.889 164.127 348.889 157.16C348.889 150.193 350.942 144.62 355.049 140.44C359.229 136.187 365.279 133.143 373.199 131.31C381.192 129.403 390.872 128.45 402.239 128.45C413.606 128.45 422.809 129.44 429.849 131.42C436.889 133.4 442.059 136.26 445.359 140C448.659 143.74 450.346 148.213 450.419 153.42H426.219C425.046 150.56 422.406 148.36 418.299 146.82C414.192 145.207 408.839 144.4 402.239 144.4C396.886 144.4 392.229 144.803 388.269 145.61C384.309 146.343 381.229 147.627 379.029 149.46C376.902 151.293 375.839 153.86 375.839 157.16C375.839 160.387 376.902 162.917 379.029 164.75C381.156 166.583 384.199 167.867 388.159 168.6C392.119 169.333 396.812 169.7 402.239 169.7C408.839 169.7 414.192 168.93 418.299 167.39C422.479 165.777 425.156 163.503 426.329 160.57H450.529ZM510.495 185.65C498.835 185.65 489.118 184.697 481.345 182.79C473.645 180.883 467.851 177.84 463.965 173.66C460.151 169.48 458.245 163.98 458.245 157.16C458.245 150.34 460.151 144.84 463.965 140.66C467.851 136.407 473.645 133.327 481.345 131.42C489.118 129.44 498.835 128.45 510.495 128.45C522.081 128.45 531.688 129.44 539.315 131.42C547.015 133.327 552.771 136.407 556.585 140.66C560.398 144.84 562.305 150.34 562.305 157.16C562.305 163.98 560.398 169.48 556.585 173.66C552.771 177.84 547.015 180.883 539.315 182.79C531.688 184.697 522.081 185.65 510.495 185.65ZM510.495 169.7C515.921 169.7 520.468 169.26 524.135 168.38C527.801 167.427 530.588 166.033 532.495 164.2C534.401 162.293 535.355 159.947 535.355 157.16C535.355 154.373 534.401 152.027 532.495 150.12C530.661 148.213 527.911 146.783 524.245 145.83C520.578 144.877 515.995 144.4 510.495 144.4C505.068 144.4 500.448 144.877 496.635 145.83C492.895 146.783 490.035 148.213 488.055 150.12C486.148 151.953 485.195 154.3 485.195 157.16C485.195 159.947 486.148 162.293 488.055 164.2C489.961 166.033 492.785 167.427 496.525 168.38C500.338 169.26 504.995 169.7 510.495 169.7ZM571.063 130.1H597.463V184H571.063V130.1ZM637.063 128.45C641.39 128.45 645.57 128.927 649.603 129.88C653.637 130.76 657.23 132.3 660.383 134.5C663.61 136.7 666.177 139.707 668.083 143.52C669.99 147.333 670.943 152.137 670.943 157.93V184H644.543V161.23C644.543 155.73 643.113 151.843 640.253 149.57C637.393 147.223 632.223 146.05 624.743 146.05C620.783 146.05 616.933 146.49 613.193 147.37C609.527 148.25 606.227 149.313 603.293 150.56C600.36 151.733 598.05 152.907 596.363 154.08L596.143 149.9C596.437 148.58 597.427 146.747 599.113 144.4C600.873 141.98 603.403 139.56 606.703 137.14C610.003 134.72 614.147 132.667 619.133 130.98C624.193 129.293 630.17 128.45 637.063 128.45ZM709.223 128.45C713.55 128.45 717.73 128.927 721.763 129.88C725.797 130.76 729.39 132.3 732.543 134.5C735.77 136.7 738.337 139.707 740.243 143.52C742.15 147.333 743.103 152.137 743.103 157.93V184H716.703V161.23C716.703 155.73 715.273 151.843 712.413 149.57C709.553 147.223 704.383 146.05 696.903 146.05C692.943 146.05 689.093 146.49 685.353 147.37C681.687 148.25 678.387 149.313 675.453 150.56C672.52 151.733 670.21 152.907 668.523 154.08L668.303 148.8C668.597 147.7 669.697 146.05 671.603 143.85C673.51 141.65 676.187 139.377 679.633 137.03C683.153 134.683 687.37 132.667 692.283 130.98C697.27 129.293 702.917 128.45 709.223 128.45ZM827.396 164.64H853.356C852.696 168.893 850.569 172.597 846.976 175.75C843.456 178.903 838.286 181.36 831.466 183.12C824.719 184.807 816.103 185.65 805.616 185.65C794.543 185.65 784.973 184.77 776.906 183.01C768.913 181.25 762.753 178.28 758.426 174.1C754.099 169.92 751.936 164.273 751.936 157.16C751.936 150.12 754.026 144.51 758.206 140.33C762.459 136.077 768.583 133.033 776.576 131.2C784.569 129.367 794.249 128.45 805.616 128.45C816.763 128.45 825.893 129.44 833.006 131.42C840.119 133.4 845.363 136.627 848.736 141.1C852.109 145.5 853.723 151.477 853.576 159.03H778.776C779.143 160.937 780.169 162.697 781.856 164.31C783.616 165.923 786.293 167.243 789.886 168.27C793.553 169.223 798.429 169.7 804.516 169.7C810.823 169.7 815.993 169.26 820.026 168.38C824.133 167.5 826.589 166.253 827.396 164.64ZM804.516 144.4C796.743 144.4 790.803 145.243 786.696 146.93C782.663 148.617 780.279 150.303 779.546 151.99H827.946C827.433 150.083 825.379 148.36 821.786 146.82C818.193 145.207 812.436 144.4 804.516 144.4Z" fill="#111111"/>
<path d="M41.58 164L2.2 93.6H33.22L66.44 159.05L55.99 159.27L87.12 93.6H120.34L151.47 159.27L141.02 159.05L174.24 93.6H204.82L165.88 164H128.7L98.34 104.71H109.12L78.76 164H41.58ZM275.355 144.64H301.315C300.655 148.893 298.528 152.597 294.935 155.75C291.415 158.903 286.245 161.36 279.425 163.12C272.678 164.807 264.062 165.65 253.575 165.65C242.502 165.65 232.932 164.77 224.865 163.01C216.872 161.25 210.712 158.28 206.385 154.1C202.058 149.92 199.895 144.273 199.895 137.16C199.895 130.12 201.985 124.51 206.165 120.33C210.418 116.077 216.542 113.033 224.535 111.2C232.528 109.367 242.208 108.45 253.575 108.45C264.722 108.45 273.852 109.44 280.965 111.42C288.078 113.4 293.322 116.627 296.695 121.1C300.068 125.5 301.682 131.477 301.535 139.03H226.735C227.102 140.937 228.128 142.697 229.815 144.31C231.575 145.923 234.252 147.243 237.845 148.27C241.512 149.223 246.388 149.7 252.475 149.7C258.782 149.7 263.952 149.26 267.985 148.38C272.092 147.5 274.548 146.253 275.355 144.64ZM252.475 124.4C244.702 124.4 238.762 125.243 234.655 126.93C230.622 128.617 228.238 130.303 227.505 131.99H275.905C275.392 130.083 273.338 128.36 269.745 126.82C266.152 125.207 260.395 124.4 252.475 124.4ZM312 88.1H338.4V164H312V88.1ZM450.529 140.57C450.529 145.85 448.879 150.36 445.579 154.1C442.279 157.84 437.072 160.7 429.959 162.68C422.846 164.66 413.606 165.65 402.239 165.65C390.872 165.65 381.192 164.733 373.199 162.9C365.279 161.067 359.229 158.06 355.049 153.88C350.942 149.7 348.889 144.127 348.889 137.16C348.889 130.193 350.942 124.62 355.049 120.44C359.229 116.187 365.279 113.143 373.199 111.31C381.192 109.403 390.872 108.45 402.239 108.45C413.606 108.45 422.809 109.44 429.849 111.42C436.889 113.4 442.059 116.26 445.359 120C448.659 123.74 450.346 128.213 450.419 133.42H426.219C425.046 130.56 422.406 128.36 418.299 126.82C414.192 125.207 408.839 124.4 402.239 124.4C396.886 124.4 392.229 124.803 388.269 125.61C384.309 126.343 381.229 127.627 379.029 129.46C376.902 131.293 375.839 133.86 375.839 137.16C375.839 140.387 376.902 142.917 379.029 144.75C381.156 146.583 384.199 147.867 388.159 148.6C392.119 149.333 396.812 149.7 402.239 149.7C408.839 149.7 414.192 148.93 418.299 147.39C422.479 145.777 425.156 143.503 426.329 140.57H450.529ZM510.495 165.65C498.835 165.65 489.118 164.697 481.345 162.79C473.645 160.883 467.851 157.84 463.965 153.66C460.151 149.48 458.245 143.98 458.245 137.16C458.245 130.34 460.151 124.84 463.965 120.66C467.851 116.407 473.645 113.327 481.345 111.42C489.118 109.44 498.835 108.45 510.495 108.45C522.081 108.45 531.688 109.44 539.315 111.42C547.015 113.327 552.771 116.407 556.585 120.66C560.398 124.84 562.305 130.34 562.305 137.16C562.305 143.98 560.398 149.48 556.585 153.66C552.771 157.84 547.015 160.883 539.315 162.79C531.688 164.697 522.081 165.65 510.495 165.65ZM510.495 149.7C515.921 149.7 520.468 149.26 524.135 148.38C527.801 147.427 530.588 146.033 532.495 144.2C534.401 142.293 535.355 139.947 535.355 137.16C535.355 134.373 534.401 132.027 532.495 130.12C530.661 128.213 527.911 126.783 524.245 125.83C520.578 124.877 515.995 124.4 510.495 124.4C505.068 124.4 500.448 124.877 496.635 125.83C492.895 126.783 490.035 128.213 488.055 130.12C486.148 131.953 485.195 134.3 485.195 137.16C485.195 139.947 486.148 142.293 488.055 144.2C489.961 146.033 492.785 147.427 496.525 148.38C500.338 149.26 504.995 149.7 510.495 149.7ZM571.063 110.1H597.463V164H571.063V110.1ZM637.063 108.45C641.39 108.45 645.57 108.927 649.603 109.88C653.637 110.76 657.23 112.3 660.383 114.5C663.61 116.7 666.177 119.707 668.083 123.52C669.99 127.333 670.943 132.137 670.943 137.93V164H644.543V141.23C644.543 135.73 643.113 131.843 640.253 129.57C637.393 127.223 632.223 126.05 624.743 126.05C620.783 126.05 616.933 126.49 613.193 127.37C609.527 128.25 606.227 129.313 603.293 130.56C600.36 131.733 598.05 132.907 596.363 134.08L596.143 129.9C596.437 128.58 597.427 126.747 599.113 124.4C600.873 121.98 603.403 119.56 606.703 117.14C610.003 114.72 614.147 112.667 619.133 110.98C624.193 109.293 630.17 108.45 637.063 108.45ZM709.223 108.45C713.55 108.45 717.73 108.927 721.763 109.88C725.797 110.76 729.39 112.3 732.543 114.5C735.77 116.7 738.337 119.707 740.243 123.52C742.15 127.333 743.103 132.137 743.103 137.93V164H716.703V141.23C716.703 135.73 715.273 131.843 712.413 129.57C709.553 127.223 704.383 126.05 696.903 126.05C692.943 126.05 689.093 126.49 685.353 127.37C681.687 128.25 678.387 129.313 675.453 130.56C672.52 131.733 670.21 132.907 668.523 134.08L668.303 128.8C668.597 127.7 669.697 126.05 671.603 123.85C673.51 121.65 676.187 119.377 679.633 117.03C683.153 114.683 687.37 112.667 692.283 110.98C697.27 109.293 702.917 108.45 709.223 108.45ZM827.396 144.64H853.356C852.696 148.893 850.569 152.597 846.976 155.75C843.456 158.903 838.286 161.36 831.466 163.12C824.719 164.807 816.103 165.65 805.616 165.65C794.543 165.65 784.973 164.77 776.906 163.01C768.913 161.25 762.753 158.28 758.426 154.1C754.099 149.92 751.936 144.273 751.936 137.16C751.936 130.12 754.026 124.51 758.206 120.33C762.459 116.077 768.583 113.033 776.576 111.2C784.569 109.367 794.249 108.45 805.616 108.45C816.763 108.45 825.893 109.44 833.006 111.42C840.119 113.4 845.363 116.627 848.736 121.1C852.109 125.5 853.723 131.477 853.576 139.03H778.776C779.143 140.937 780.169 142.697 781.856 144.31C783.616 145.923 786.293 147.243 789.886 148.27C793.553 149.223 798.429 149.7 804.516 149.7C810.823 149.7 815.993 149.26 820.026 148.38C824.133 147.5 826.589 146.253 827.396 144.64ZM804.516 124.4C796.743 124.4 790.803 125.243 786.696 126.93C782.663 128.617 780.279 130.303 779.546 131.99H827.946C827.433 130.083 825.379 128.36 821.786 126.82C818.193 125.207 812.436 124.4 804.516 124.4Z" fill="#262626"/>
<path d="M41.58 144L2.2 73.6H33.22L66.44 139.05L55.99 139.27L87.12 73.6H120.34L151.47 139.27L141.02 139.05L174.24 73.6H204.82L165.88 144H128.7L98.34 84.71H109.12L78.76 144H41.58ZM275.355 124.64H301.315C300.655 128.893 298.528 132.597 294.935 135.75C291.415 138.903 286.245 141.36 279.425 143.12C272.678 144.807 264.062 145.65 253.575 145.65C242.502 145.65 232.932 144.77 224.865 143.01C216.872 141.25 210.712 138.28 206.385 134.1C202.058 129.92 199.895 124.273 199.895 117.16C199.895 110.12 201.985 104.51 206.165 100.33C210.418 96.0767 216.542 93.0333 224.535 91.2C232.528 89.3667 242.208 88.45 253.575 88.45C264.722 88.45 273.852 89.44 280.965 91.42C288.078 93.4 293.322 96.6267 296.695 101.1C300.068 105.5 301.682 111.477 301.535 119.03H226.735C227.102 120.937 228.128 122.697 229.815 124.31C231.575 125.923 234.252 127.243 237.845 128.27C241.512 129.223 246.388 129.7 252.475 129.7C258.782 129.7 263.952 129.26 267.985 128.38C272.092 127.5 274.548 126.253 275.355 124.64ZM252.475 104.4C244.702 104.4 238.762 105.243 234.655 106.93C230.622 108.617 228.238 110.303 227.505 111.99H275.905C275.392 110.083 273.338 108.36 269.745 106.82C266.152 105.207 260.395 104.4 252.475 104.4ZM312 68.1H338.4V144H312V68.1ZM450.529 120.57C450.529 125.85 448.879 130.36 445.579 134.1C442.279 137.84 437.072 140.7 429.959 142.68C422.846 144.66 413.606 145.65 402.239 145.65C390.872 145.65 381.192 144.733 373.199 142.9C365.279 141.067 359.229 138.06 355.049 133.88C350.942 129.7 348.889 124.127 348.889 117.16C348.889 110.193 350.942 104.62 355.049 100.44C359.229 96.1867 365.279 93.1433 373.199 91.31C381.192 89.4033 390.872 88.45 402.239 88.45C413.606 88.45 422.809 89.44 429.849 91.42C436.889 93.4 442.059 96.26 445.359 100C448.659 103.74 450.346 108.213 450.419 113.42H426.219C425.046 110.56 422.406 108.36 418.299 106.82C414.192 105.207 408.839 104.4 402.239 104.4C396.886 104.4 392.229 104.803 388.269 105.61C384.309 106.343 381.229 107.627 379.029 109.46C376.902 111.293 375.839 113.86 375.839 117.16C375.839 120.387 376.902 122.917 379.029 124.75C381.156 126.583 384.199 127.867 388.159 128.6C392.119 129.333 396.812 129.7 402.239 129.7C408.839 129.7 414.192 128.93 418.299 127.39C422.479 125.777 425.156 123.503 426.329 120.57H450.529ZM510.495 145.65C498.835 145.65 489.118 144.697 481.345 142.79C473.645 140.883 467.851 137.84 463.965 133.66C460.151 129.48 458.245 123.98 458.245 117.16C458.245 110.34 460.151 104.84 463.965 100.66C467.851 96.4067 473.645 93.3267 481.345 91.42C489.118 89.44 498.835 88.45 510.495 88.45C522.081 88.45 531.688 89.44 539.315 91.42C547.015 93.3267 552.771 96.4067 556.585 100.66C560.398 104.84 562.305 110.34 562.305 117.16C562.305 123.98 560.398 129.48 556.585 133.66C552.771 137.84 547.015 140.883 539.315 142.79C531.688 144.697 522.081 145.65 510.495 145.65ZM510.495 129.7C515.921 129.7 520.468 129.26 524.135 128.38C527.801 127.427 530.588 126.033 532.495 124.2C534.401 122.293 535.355 119.947 535.355 117.16C535.355 114.373 534.401 112.027 532.495 110.12C530.661 108.213 527.911 106.783 524.245 105.83C520.578 104.877 515.995 104.4 510.495 104.4C505.068 104.4 500.448 104.877 496.635 105.83C492.895 106.783 490.035 108.213 488.055 110.12C486.148 111.953 485.195 114.3 485.195 117.16C485.195 119.947 486.148 122.293 488.055 124.2C489.961 126.033 492.785 127.427 496.525 128.38C500.338 129.26 504.995 129.7 510.495 129.7ZM571.063 90.1H597.463V144H571.063V90.1ZM637.063 88.45C641.39 88.45 645.57 88.9267 649.603 89.88C653.637 90.76 657.23 92.3 660.383 94.5C663.61 96.7 666.177 99.7067 668.083 103.52C669.99 107.333 670.943 112.137 670.943 117.93V144H644.543V121.23C644.543 115.73 643.113 111.843 640.253 109.57C637.393 107.223 632.223 106.05 624.743 106.05C620.783 106.05 616.933 106.49 613.193 107.37C609.527 108.25 606.227 109.313 603.293 110.56C600.36 111.733 598.05 112.907 596.363 114.08L596.143 109.9C596.437 108.58 597.427 106.747 599.113 104.4C600.873 101.98 603.403 99.56 606.703 97.14C610.003 94.72 614.147 92.6667 619.133 90.98C624.193 89.2933 630.17 88.45 637.063 88.45ZM709.223 88.45C713.55 88.45 717.73 88.9267 721.763 89.88C725.797 90.76 729.39 92.3 732.543 94.5C735.77 96.7 738.337 99.7067 740.243 103.52C742.15 107.333 743.103 112.137 743.103 117.93V144H716.703V121.23C716.703 115.73 715.273 111.843 712.413 109.57C709.553 107.223 704.383 106.05 696.903 106.05C692.943 106.05 689.093 106.49 685.353 107.37C681.687 108.25 678.387 109.313 675.453 110.56C672.52 111.733 670.21 112.907 668.523 114.08L668.303 108.8C668.597 107.7 669.697 106.05 671.603 103.85C673.51 101.65 676.187 99.3767 679.633 97.03C683.153 94.6833 687.37 92.6667 692.283 90.98C697.27 89.2933 702.917 88.45 709.223 88.45ZM827.396 124.64H853.356C852.696 128.893 850.569 132.597 846.976 135.75C843.456 138.903 838.286 141.36 831.466 143.12C824.719 144.807 816.103 145.65 805.616 145.65C794.543 145.65 784.973 144.77 776.906 143.01C768.913 141.25 762.753 138.28 758.426 134.1C754.099 129.92 751.936 124.273 751.936 117.16C751.936 110.12 754.026 104.51 758.206 100.33C762.459 96.0767 768.583 93.0333 776.576 91.2C784.569 89.3667 794.249 88.45 805.616 88.45C816.763 88.45 825.893 89.44 833.006 91.42C840.119 93.4 845.363 96.6267 848.736 101.1C852.109 105.5 853.723 111.477 853.576 119.03H778.776C779.143 120.937 780.169 122.697 781.856 124.31C783.616 125.923 786.293 127.243 789.886 128.27C793.553 129.223 798.429 129.7 804.516 129.7C810.823 129.7 815.993 129.26 820.026 128.38C824.133 127.5 826.589 126.253 827.396 124.64ZM804.516 104.4C796.743 104.4 790.803 105.243 786.696 106.93C782.663 108.617 780.279 110.303 779.546 111.99H827.946C827.433 110.083 825.379 108.36 821.786 106.82C818.193 105.207 812.436 104.4 804.516 104.4Z" fill="#535353"/>
<path d="M42.58 123L3.2 52.6H34.22L67.44 118.05L56.99 118.27L88.12 52.6H121.34L152.47 118.27L142.02 118.05L175.24 52.6H205.82L166.88 123H129.7L99.34 63.71H110.12L79.76 123H42.58ZM276.355 103.64H302.315C301.655 107.893 299.528 111.597 295.935 114.75C292.415 117.903 287.245 120.36 280.425 122.12C273.678 123.807 265.062 124.65 254.575 124.65C243.502 124.65 233.932 123.77 225.865 122.01C217.872 120.25 211.712 117.28 207.385 113.1C203.058 108.92 200.895 103.273 200.895 96.16C200.895 89.12 202.985 83.51 207.165 79.33C211.418 75.0767 217.542 72.0333 225.535 70.2C233.528 68.3667 243.208 67.45 254.575 67.45C265.722 67.45 274.852 68.44 281.965 70.42C289.078 72.4 294.322 75.6267 297.695 80.1C301.068 84.5 302.682 90.4767 302.535 98.03H227.735C228.102 99.9367 229.128 101.697 230.815 103.31C232.575 104.923 235.252 106.243 238.845 107.27C242.512 108.223 247.388 108.7 253.475 108.7C259.782 108.7 264.952 108.26 268.985 107.38C273.092 106.5 275.548 105.253 276.355 103.64ZM253.475 83.4C245.702 83.4 239.762 84.2433 235.655 85.93C231.622 87.6167 229.238 89.3033 228.505 90.99H276.905C276.392 89.0833 274.338 87.36 270.745 85.82C267.152 84.2067 261.395 83.4 253.475 83.4ZM313 47.1H339.4V123H313V47.1ZM451.529 99.57C451.529 104.85 449.879 109.36 446.579 113.1C443.279 116.84 438.072 119.7 430.959 121.68C423.846 123.66 414.606 124.65 403.239 124.65C391.872 124.65 382.192 123.733 374.199 121.9C366.279 120.067 360.229 117.06 356.049 112.88C351.942 108.7 349.889 103.127 349.889 96.16C349.889 89.1933 351.942 83.62 356.049 79.44C360.229 75.1867 366.279 72.1433 374.199 70.31C382.192 68.4033 391.872 67.45 403.239 67.45C414.606 67.45 423.809 68.44 430.849 70.42C437.889 72.4 443.059 75.26 446.359 79C449.659 82.74 451.346 87.2133 451.419 92.42H427.219C426.046 89.56 423.406 87.36 419.299 85.82C415.192 84.2067 409.839 83.4 403.239 83.4C397.886 83.4 393.229 83.8033 389.269 84.61C385.309 85.3433 382.229 86.6267 380.029 88.46C377.902 90.2933 376.839 92.86 376.839 96.16C376.839 99.3867 377.902 101.917 380.029 103.75C382.156 105.583 385.199 106.867 389.159 107.6C393.119 108.333 397.812 108.7 403.239 108.7C409.839 108.7 415.192 107.93 419.299 106.39C423.479 104.777 426.156 102.503 427.329 99.57H451.529ZM511.495 124.65C499.835 124.65 490.118 123.697 482.345 121.79C474.645 119.883 468.851 116.84 464.965 112.66C461.151 108.48 459.245 102.98 459.245 96.16C459.245 89.34 461.151 83.84 464.965 79.66C468.851 75.4067 474.645 72.3267 482.345 70.42C490.118 68.44 499.835 67.45 511.495 67.45C523.081 67.45 532.688 68.44 540.315 70.42C548.015 72.3267 553.771 75.4067 557.585 79.66C561.398 83.84 563.305 89.34 563.305 96.16C563.305 102.98 561.398 108.48 557.585 112.66C553.771 116.84 548.015 119.883 540.315 121.79C532.688 123.697 523.081 124.65 511.495 124.65ZM511.495 108.7C516.921 108.7 521.468 108.26 525.135 107.38C528.801 106.427 531.588 105.033 533.495 103.2C535.401 101.293 536.355 98.9467 536.355 96.16C536.355 93.3733 535.401 91.0267 533.495 89.12C531.661 87.2133 528.911 85.7833 525.245 84.83C521.578 83.8767 516.995 83.4 511.495 83.4C506.068 83.4 501.448 83.8767 497.635 84.83C493.895 85.7833 491.035 87.2133 489.055 89.12C487.148 90.9533 486.195 93.3 486.195 96.16C486.195 98.9467 487.148 101.293 489.055 103.2C490.961 105.033 493.785 106.427 497.525 107.38C501.338 108.26 505.995 108.7 511.495 108.7ZM572.063 69.1H598.463V123H572.063V69.1ZM638.063 67.45C642.39 67.45 646.57 67.9267 650.603 68.88C654.637 69.76 658.23 71.3 661.383 73.5C664.61 75.7 667.177 78.7067 669.083 82.52C670.99 86.3333 671.943 91.1367 671.943 96.93V123H645.543V100.23C645.543 94.73 644.113 90.8433 641.253 88.57C638.393 86.2233 633.223 85.05 625.743 85.05C621.783 85.05 617.933 85.49 614.193 86.37C610.527 87.25 607.227 88.3133 604.293 89.56C601.36 90.7333 599.05 91.9067 597.363 93.08L597.143 88.9C597.437 87.58 598.427 85.7467 600.113 83.4C601.873 80.98 604.403 78.56 607.703 76.14C611.003 73.72 615.147 71.6667 620.133 69.98C625.193 68.2933 631.17 67.45 638.063 67.45ZM710.223 67.45C714.55 67.45 718.73 67.9267 722.763 68.88C726.797 69.76 730.39 71.3 733.543 73.5C736.77 75.7 739.337 78.7067 741.243 82.52C743.15 86.3333 744.103 91.1367 744.103 96.93V123H717.703V100.23C717.703 94.73 716.273 90.8433 713.413 88.57C710.553 86.2233 705.383 85.05 697.903 85.05C693.943 85.05 690.093 85.49 686.353 86.37C682.687 87.25 679.387 88.3133 676.453 89.56C673.52 90.7333 671.21 91.9067 669.523 93.08L669.303 87.8C669.597 86.7 670.697 85.05 672.603 82.85C674.51 80.65 677.187 78.3767 680.633 76.03C684.153 73.6833 688.37 71.6667 693.283 69.98C698.27 68.2933 703.917 67.45 710.223 67.45ZM828.396 103.64H854.356C853.696 107.893 851.569 111.597 847.976 114.75C844.456 117.903 839.286 120.36 832.466 122.12C825.719 123.807 817.103 124.65 806.616 124.65C795.543 124.65 785.973 123.77 777.906 122.01C769.913 120.25 763.753 117.28 759.426 113.1C755.099 108.92 752.936 103.273 752.936 96.16C752.936 89.12 755.026 83.51 759.206 79.33C763.459 75.0767 769.583 72.0333 777.576 70.2C785.569 68.3667 795.249 67.45 806.616 67.45C817.763 67.45 826.893 68.44 834.006 70.42C841.119 72.4 846.363 75.6267 849.736 80.1C853.109 84.5 854.723 90.4767 854.576 98.03H779.776C780.143 99.9367 781.169 101.697 782.856 103.31C784.616 104.923 787.293 106.243 790.886 107.27C794.553 108.223 799.429 108.7 805.516 108.7C811.823 108.7 816.993 108.26 821.026 107.38C825.133 106.5 827.589 105.253 828.396 103.64ZM805.516 83.4C797.743 83.4 791.803 84.2433 787.696 85.93C783.663 87.6167 781.279 89.3033 780.546 90.99H828.946C828.433 89.0833 826.379 87.36 822.786 85.82C819.193 84.2067 813.436 83.4 805.516 83.4Z" fill="#B1B1B1"/>
<path d="M42.58 102L3.2 31.6H34.22L67.44 97.05L56.99 97.27L88.12 31.6H121.34L152.47 97.27L142.02 97.05L175.24 31.6H205.82L166.88 102H129.7L99.34 42.71H110.12L79.76 102H42.58ZM276.355 82.64H302.315C301.655 86.8933 299.528 90.5967 295.935 93.75C292.415 96.9033 287.245 99.36 280.425 101.12C273.678 102.807 265.062 103.65 254.575 103.65C243.502 103.65 233.932 102.77 225.865 101.01C217.872 99.25 211.712 96.28 207.385 92.1C203.058 87.92 200.895 82.2733 200.895 75.16C200.895 68.12 202.985 62.51 207.165 58.33C211.418 54.0767 217.542 51.0333 225.535 49.2C233.528 47.3667 243.208 46.45 254.575 46.45C265.722 46.45 274.852 47.44 281.965 49.42C289.078 51.4 294.322 54.6267 297.695 59.1C301.068 63.5 302.682 69.4767 302.535 77.03H227.735C228.102 78.9367 229.128 80.6967 230.815 82.31C232.575 83.9233 235.252 85.2433 238.845 86.27C242.512 87.2233 247.388 87.7 253.475 87.7C259.782 87.7 264.952 87.26 268.985 86.38C273.092 85.5 275.548 84.2533 276.355 82.64ZM253.475 62.4C245.702 62.4 239.762 63.2433 235.655 64.93C231.622 66.6167 229.238 68.3033 228.505 69.99H276.905C276.392 68.0833 274.338 66.36 270.745 64.82C267.152 63.2067 261.395 62.4 253.475 62.4ZM313 26.1H339.4V102H313V26.1ZM451.529 78.57C451.529 83.85 449.879 88.36 446.579 92.1C443.279 95.84 438.072 98.7 430.959 100.68C423.846 102.66 414.606 103.65 403.239 103.65C391.872 103.65 382.192 102.733 374.199 100.9C366.279 99.0667 360.229 96.06 356.049 91.88C351.942 87.7 349.889 82.1267 349.889 75.16C349.889 68.1933 351.942 62.62 356.049 58.44C360.229 54.1867 366.279 51.1433 374.199 49.31C382.192 47.4033 391.872 46.45 403.239 46.45C414.606 46.45 423.809 47.44 430.849 49.42C437.889 51.4 443.059 54.26 446.359 58C449.659 61.74 451.346 66.2133 451.419 71.42H427.219C426.046 68.56 423.406 66.36 419.299 64.82C415.192 63.2067 409.839 62.4 403.239 62.4C397.886 62.4 393.229 62.8033 389.269 63.61C385.309 64.3433 382.229 65.6267 380.029 67.46C377.902 69.2933 376.839 71.86 376.839 75.16C376.839 78.3867 377.902 80.9167 380.029 82.75C382.156 84.5833 385.199 85.8667 389.159 86.6C393.119 87.3333 397.812 87.7 403.239 87.7C409.839 87.7 415.192 86.93 419.299 85.39C423.479 83.7767 426.156 81.5033 427.329 78.57H451.529ZM511.495 103.65C499.835 103.65 490.118 102.697 482.345 100.79C474.645 98.8833 468.851 95.84 464.965 91.66C461.151 87.48 459.245 81.98 459.245 75.16C459.245 68.34 461.151 62.84 464.965 58.66C468.851 54.4067 474.645 51.3267 482.345 49.42C490.118 47.44 499.835 46.45 511.495 46.45C523.081 46.45 532.688 47.44 540.315 49.42C548.015 51.3267 553.771 54.4067 557.585 58.66C561.398 62.84 563.305 68.34 563.305 75.16C563.305 81.98 561.398 87.48 557.585 91.66C553.771 95.84 548.015 98.8833 540.315 100.79C532.688 102.697 523.081 103.65 511.495 103.65ZM511.495 87.7C516.921 87.7 521.468 87.26 525.135 86.38C528.801 85.4267 531.588 84.0333 533.495 82.2C535.401 80.2933 536.355 77.9467 536.355 75.16C536.355 72.3733 535.401 70.0267 533.495 68.12C531.661 66.2133 528.911 64.7833 525.245 63.83C521.578 62.8767 516.995 62.4 511.495 62.4C506.068 62.4 501.448 62.8767 497.635 63.83C493.895 64.7833 491.035 66.2133 489.055 68.12C487.148 69.9533 486.195 72.3 486.195 75.16C486.195 77.9467 487.148 80.2933 489.055 82.2C490.961 84.0333 493.785 85.4267 497.525 86.38C501.338 87.26 505.995 87.7 511.495 87.7ZM572.063 48.1H598.463V102H572.063V48.1ZM638.063 46.45C642.39 46.45 646.57 46.9267 650.603 47.88C654.637 48.76 658.23 50.3 661.383 52.5C664.61 54.7 667.177 57.7067 669.083 61.52C670.99 65.3333 671.943 70.1367 671.943 75.93V102H645.543V79.23C645.543 73.73 644.113 69.8433 641.253 67.57C638.393 65.2233 633.223 64.05 625.743 64.05C621.783 64.05 617.933 64.49 614.193 65.37C610.527 66.25 607.227 67.3133 604.293 68.56C601.36 69.7333 599.05 70.9067 597.363 72.08L597.143 67.9C597.437 66.58 598.427 64.7467 600.113 62.4C601.873 59.98 604.403 57.56 607.703 55.14C611.003 52.72 615.147 50.6667 620.133 48.98C625.193 47.2933 631.17 46.45 638.063 46.45ZM710.223 46.45C714.55 46.45 718.73 46.9267 722.763 47.88C726.797 48.76 730.39 50.3 733.543 52.5C736.77 54.7 739.337 57.7067 741.243 61.52C743.15 65.3333 744.103 70.1367 744.103 75.93V102H717.703V79.23C717.703 73.73 716.273 69.8433 713.413 67.57C710.553 65.2233 705.383 64.05 697.903 64.05C693.943 64.05 690.093 64.49 686.353 65.37C682.687 66.25 679.387 67.3133 676.453 68.56C673.52 69.7333 671.21 70.9067 669.523 72.08L669.303 66.8C669.597 65.7 670.697 64.05 672.603 61.85C674.51 59.65 677.187 57.3767 680.633 55.03C684.153 52.6833 688.37 50.6667 693.283 48.98C698.27 47.2933 703.917 46.45 710.223 46.45ZM828.396 82.64H854.356C853.696 86.8933 851.569 90.5967 847.976 93.75C844.456 96.9033 839.286 99.36 832.466 101.12C825.719 102.807 817.103 103.65 806.616 103.65C795.543 103.65 785.973 102.77 777.906 101.01C769.913 99.25 763.753 96.28 759.426 92.1C755.099 87.92 752.936 82.2733 752.936 75.16C752.936 68.12 755.026 62.51 759.206 58.33C763.459 54.0767 769.583 51.0333 777.576 49.2C785.569 47.3667 795.249 46.45 806.616 46.45C817.763 46.45 826.893 47.44 834.006 49.42C841.119 51.4 846.363 54.6267 849.736 59.1C853.109 63.5 854.723 69.4767 854.576 77.03H779.776C780.143 78.9367 781.169 80.6967 782.856 82.31C784.616 83.9233 787.293 85.2433 790.886 86.27C794.553 87.2233 799.429 87.7 805.516 87.7C811.823 87.7 816.993 87.26 821.026 86.38C825.133 85.5 827.589 84.2533 828.396 82.64ZM805.516 62.4C797.743 62.4 791.803 63.2433 787.696 64.93C783.663 66.6167 781.279 68.3033 780.546 69.99H828.946C828.433 68.0833 826.379 66.36 822.786 64.82C819.193 63.2067 813.436 62.4 805.516 62.4Z" fill="white"/>
</svg>
