<svg width="30" height="30" viewBox="0 0 30 30" fill="none" xmlns="http://www.w3.org/2000/svg">
<path fill-rule="evenodd" clip-rule="evenodd" d="M15 2.80835C8.09375 2.80835 2.5 8.4021 2.5 15.3083C2.5 20.8396 6.07812 25.5115 11.0469 27.1677C11.6719 27.2771 11.9062 26.9021 11.9062 26.574C11.9062 26.2771 11.8906 25.2927 11.8906 24.2458C8.75 24.824 7.9375 23.4802 7.6875 22.7771C7.54688 22.4177 6.9375 21.3083 6.40625 21.0115C5.96875 20.7771 5.34375 20.199 6.39062 20.1833C7.375 20.1677 8.07812 21.0896 8.3125 21.4646C9.4375 23.3552 11.2344 22.824 11.9531 22.4958C12.0625 21.6833 12.3906 21.1365 12.75 20.824C9.96875 20.5115 7.0625 19.4333 7.0625 14.6521C7.0625 13.2927 7.54688 12.1677 8.34375 11.2927C8.21875 10.9802 7.78125 9.69897 8.46875 7.98022C8.46875 7.98022 9.51562 7.6521 11.9062 9.26147C12.9062 8.98022 13.9688 8.8396 15.0313 8.8396C16.0938 8.8396 17.1563 8.98022 18.1563 9.26147C20.5469 7.63647 21.5938 7.98022 21.5938 7.98022C22.2812 9.69897 21.8438 10.9802 21.7188 11.2927C22.5156 12.1677 23 13.2771 23 14.6521C23 19.449 20.0781 20.5115 17.2969 20.824C17.75 21.2146 18.1406 21.9646 18.1406 23.1365C18.1406 24.8083 18.125 26.1521 18.125 26.574C18.125 26.9021 18.3594 27.2927 18.9844 27.1677C21.4659 26.33 23.6221 24.7352 25.1497 22.6078C26.6773 20.4803 27.4993 17.9274 27.5 15.3083C27.5 8.4021 21.9062 2.80835 15 2.80835Z" fill="#FFB41F"/>
</svg>
