<svg width="30" height="30" viewBox="0 0 30 30" fill="none" xmlns="http://www.w3.org/2000/svg">
<path d="M26.25 5.40441V24.5956C26.25 25.0344 26.0757 25.4552 25.7654 25.7654C25.4552 26.0757 25.0344 26.25 24.5956 26.25H5.40441C4.96563 26.25 4.54483 26.0757 4.23457 25.7654C3.9243 25.4552 3.75 25.0344 3.75 24.5956V5.40441C3.75 4.96563 3.9243 4.54483 4.23457 4.23457C4.54483 3.9243 4.96563 3.75 5.40441 3.75H24.5956C25.0344 3.75 25.4552 3.9243 25.7654 4.23457C26.0757 4.54483 26.25 4.96563 26.25 5.40441ZM10.3676 12.3529H7.05882V22.9412H10.3676V12.3529ZM10.6654 8.71324C10.6672 8.46295 10.6196 8.21477 10.5254 7.98287C10.4313 7.75097 10.2923 7.53989 10.1166 7.36168C9.94084 7.18348 9.73171 7.04163 9.50114 6.94425C9.27057 6.84686 9.02308 6.79585 8.77279 6.79412H8.71324C8.20425 6.79412 7.71612 6.99631 7.35621 7.35621C6.99631 7.71612 6.79412 8.20425 6.79412 8.71324C6.79412 9.22222 6.99631 9.71035 7.35621 10.0703C7.71612 10.4302 8.20425 10.6324 8.71324 10.6324C8.96354 10.6385 9.2126 10.5953 9.44619 10.5052C9.67979 10.415 9.89333 10.2797 10.0746 10.1071C10.2559 9.93437 10.4014 9.72765 10.5028 9.49871C10.6042 9.26977 10.6594 9.0231 10.6654 8.77279V8.71324ZM22.9412 16.5088C22.9412 13.3257 20.9162 12.0882 18.9044 12.0882C18.2457 12.0553 17.5899 12.1955 17.0023 12.4951C16.4148 12.7947 15.9161 13.2431 15.5559 13.7956H15.4632V12.3529H12.3529V22.9412H15.6618V17.3096C15.6139 16.7328 15.7956 16.1604 16.1673 15.7168C16.5391 15.2732 17.0708 14.9942 17.6471 14.9404H17.7728C18.825 14.9404 19.6059 15.6022 19.6059 17.2699V22.9412H22.9147L22.9412 16.5088Z" fill="#FFB41F"/>
</svg>
